<svg version="1.1" preserveAspectRatio="none" xmlns="http://www.w3.org/2000/svg" width="500" height="500" viewBox="0 0 500 500"><rect width="100%" height="100%" fill="#EDECEB" fill-opacity="1"/><svg viewBox="240.9855 285.6436 393.029 560" width="233.7118875" height="333" x="133.1441px" y="83.5px" xmlns="http://www.w3.org/2000/svg" xmlns:xlink="http://www.w3.org/1999/xlink" preserveAspectRatio="none"><defs></defs><style>.companyName {fill:#5B4B42;fill-opacity:1;}.icon1 {fill:#B3D0D9;fill-opacity:1;}.icon2 {fill:#99A08E;fill-opacity:1;}.icon3 {fill:#DFC4B5;fill-opacity:1;}.icon3-str {stroke:#DFC4B5;stroke-opacity:1;}.text {fill:#5D4B40;fill-opacity:1;}</style><g opacity="1" transform="rotate(0 352.2589 285.6436)">
<svg width="170.4822" height="400" x="352.2589" y="285.6436" version="1.1" preserveAspectRatio="none" viewBox="66.00064849853516 20.454002380371094 67.99935150146484 159.54598999023438">
  <g transform="matrix(1 0 0 1 0 0)"><g><path d="m90.636 164.436.292 7.587 5.566 3.27 5.234-3.853-.584-9.047-10.508 2.043z" data-color="1" class="icon1"></path><path d="m90.57 168.035 10.939-.584.219 3.989-6.325 5.155-4.475-4.572-.358-3.988z" data-color="2" class="icon2"></path><path d="m90.57 168.035 10.939-.584.219 3.989-6.325 5.155-4.475-4.572-.358-3.988z" opacity=".1"></path><path d="m90.928 172.023-8.173 5.35L82.56 180l19.752-.097-.584-8.463-.358.253a9.48 9.48 0 0 1-10.442.33z" data-color="2" class="icon2"></path><path d="M96.474 173.385s.021 1.908 2.822 1.167c1.398-.37 3.016 2.237 3.016 2.237l-.584-5.35-5.254 1.946z" data-color="3" class="icon3"></path><path d="m85.154 175.052.972 1.946-.319.16-.973-1.946.32-.16z"></path><path d="m86.711 174.273.974 1.945-.32.16-.973-1.945.32-.16z"></path><path d="m88.356 173.507.973 1.946-.32.16-.972-1.946.32-.16z"></path><path d="m101.646 169.898.033.355-10.729.969-.032-.356 10.728-.968z"></path><path d="m101.595 168.858.031.356-10.875.938-.03-.356 10.874-.938z"></path><path d="m111.912 164.436.292 7.587 5.567 3.27 5.234-3.853-.584-9.047-10.509 2.043z" data-color="1" class="icon1"></path><path d="m111.847 168.035 10.939-.584.219 3.989-6.325 5.155-4.476-4.572-.357-3.988z" data-color="2" class="icon2"></path><path d="m111.847 168.035 10.939-.584.219 3.989-6.325 5.155-4.476-4.572-.357-3.988z" opacity=".1"></path><path d="m112.204 172.023-8.173 5.35-.195 2.627 19.752-.097-.584-8.463-.358.253a9.48 9.48 0 0 1-10.442.33z" data-color="2" class="icon2"></path><path d="M117.751 173.385s.021 1.908 2.822 1.167c1.398-.37 3.016 2.237 3.016 2.237l-.584-5.35-5.254 1.946z" data-color="3" class="icon3"></path><path d="M96.928 115.537h29.175a7.896 7.896 0 0 0 7.897-7.895V74.407c0-10.192-8.341-18.531-18.536-18.531-10.195 0-18.536 8.339-18.536 18.531v26.848" data-color="4" class="icon1"></path><path d="m88.268 107.14-2.919 57.782 20.044.584-2.919-60.311-14.206 1.945z" data-color="5" class="icon2"></path><path d="m108.312 165.895 16.931-1.751-4.763-55.594-21.509-1.896 7.59 46.401 1.751 12.84z" data-color="5" class="icon2"></path><path d="M114.23 55.527s27.501 11.783 6.25 53.023H86.193s-.137-.746-.334-2.061c-1.42-9.479-5.973-48.542 14.977-51.141l13.394.179z" data-color="6" class="icon3"></path><path d="M97.622 34.38s-5.357-3.928-2.857-10.355c0 0 .714 1.428 2.5 2.499 0 0-.714-2.856.714-4.642 0 0 .357 2.499 3.214 3.571 0 0 .714-2.856 1.786-4.999 0 0-1.219 6.985 8.572 8.212 2.792.35 14.176 2.883 13.84 14.211-.163 5.465-3.11 10.471-7.689 13.461l-3.829 2.5L97.622 34.38z" data-color="4" class="icon1"></path><path d="M94.169 40.293a17.475 17.475 0 0 0-1.301 6.093c-.148 5.385 2.113 10.418 7.202 12.767 3.635 1.678 7.996 1.564 11.65-.075 7.402-3.319 9.117-10.24 10.367-17.477.126-.732-2.842-3.235-3.297-3.68-2.461-2.407-5.304-4.637-8.554-5.862-7.264-2.738-13.466 1.875-16.067 8.234z" data-color="1" class="icon1"></path><path d="M105.301 48.743c-7.322 1.25-8.75-3.035-8.75-3.035s-.014 7.58 5.357 5.356c.95-.393 3.393-2.321 3.393-2.321z" data-color="2" class="icon2"></path><path d="M99.408 39.995a1.071 1.071 0 1 1-2.142 0 1.071 1.071 0 0 1 2.142 0z"></path><path d="M109.587 44.815a1.071 1.071 0 1 1-2.142 0 1.071 1.071 0 0 1 2.142 0z"></path><path d="M121.373 53.206a1.964 1.964 0 1 1-3.928 0 1.964 1.964 0 0 1 3.928 0z" data-color="1" class="icon1"></path><path d="m100.935 44.975-5.287-2.643 1.107.165c.037.005 3.736.532 4.932-1.187.664-.955.446-2.45-.65-4.442l.313-.172c1.167 2.121 1.379 3.742.63 4.819-.931 1.338-3.086 1.465-4.337 1.416l3.452 1.726-.16.318z"></path><path d="m121.373 48.386-5 3.571-1.071-1.785 3.214-5.356s-5.99-2.391-3.133-7.39c0 0-9.5.556-12.714-4.086s4.775-4.592 4.775-4.592 13.929 7.498 14.643 8.569c.715 1.071 2.501 8.213-.714 11.069z" data-color="4" class="icon1"></path><path d="M98.717 54.545c-.479-.839-.999-1.302-1.545-1.377-.592-.078-1.027.34-1.031.344l-.252-.253c.023-.023.558-.547 1.327-.445.663.089 1.273.612 1.812 1.554l-.311.177z"></path><path d="M95.468 55.779s-15.179 8.366-20.525 41.524l12.858 4.285 7.667-45.809z" data-color="6" class="icon3"></path><path d="M116.81 57.076c-5.579 4.28-28.652 25.588 3.67 51.475 0 0 2.679 1.607 3.75-1.607 0 0-21.554-15.912-17.021-30.283 4.541-14.397 12.714-17.38 12.714-17.38s-2.356-2.786-3.113-2.205z" data-color="7" class="icon1"></path><path d="m69.586 83.989-.714 11.172 7.72 2.835 5.137-13.904-12.143-.103z" data-color="6" class="icon3"></path><path d="M83.792 83.146s.211-16.716 11.822-27.611l1.654 1.751s-8.611 8.998-10.557 25.859l-2.919.001z" data-color="7" class="icon1"></path><path d="M116.167 65.768c.541-2.332 3.387-4.811 5.563-3.814 6.024 2.759 15 25.351 10.357 33.563-10.544 18.65-29.287 11.069-29.287 11.069l.357-16.425s25.001 3.928 20.715-4.642c.001.001-10.346-8.381-7.705-19.751z" data-color="6" class="icon3"></path><path d="m71.921 85.35.195 8.56s-6.459-.178-6.101-5.891c.357-5.713 5.712-5.198 5.712-5.198l.194 2.529z" data-color="1" class="icon1"></path><path d="M99.587 93.375v6.427s-11.429 4.285-21.072-3.214l4.286-1.785s11.428.715 16.786-1.428z" data-color="1" class="icon1"></path><path d="M70.3 91.947s2.5 2.856 0 4.642h18.572s3.572-2.142 0-4.642H70.3z" data-color="2" class="icon2"></path><path d="M70.3 87.662s2.5 2.856 0 4.642h18.572s3.572-2.142 0-4.642H70.3z" data-color="2" class="icon2"></path><path d="M70.3 83.021s2.5 2.856 0 4.642h18.572s3.572-2.142 0-4.642H70.3z" data-color="2" class="icon2"></path><path d="M86.66 97.843c-1.296-.389-2.899-1.17-2.915-1.178l.157-.321c.016.008 1.592.777 2.86 1.157l-.102.342z"></path><path d="M84.362 98.271c-1.721-.132-3.524-1.534-3.599-1.594l.22-.281c.018.014 1.794 1.395 3.406 1.519l-.027.356z"></path><path d="M88.922 87.841H70.3v-.357h18.52c.235-.153 1.422-.982 1.46-2.094.026-.745-.467-1.482-1.464-2.191H70.3v-.357h18.628l.046.032c1.134.794 1.693 1.645 1.662 2.53-.05 1.422-1.607 2.371-1.673 2.411l-.041.026z" data-color="5" class="icon2"></path><path d="M88.922 92.304H70.3v-.357h18.52c.235-.153 1.422-.982 1.46-2.094.026-.745-.467-1.482-1.464-2.191H70.3v-.357h18.628l.046.032c1.134.794 1.693 1.645 1.662 2.53-.05 1.422-1.607 2.371-1.673 2.411l-.041.026z" data-color="5" class="icon2"></path><path d="M88.922 96.767H70.3v-.357h18.52c.235-.153 1.422-.982 1.46-2.094.026-.745-.467-1.482-1.464-2.191H70.3v-.357h18.628l.046.032c1.134.794 1.693 1.645 1.662 2.53-.05 1.422-1.607 2.371-1.673 2.411l-.041.026z" data-color="5" class="icon2"></path><path d="M86.729 90.876s2.857 5.356 5.357 5.713c2.5.357 3.572-.714 3.572-.714s-6.429-2.856-7.5-5.356l-1.429.357z" data-color="1" class="icon1"></path><path d="m69.244 85.56 1.946.52-.092.345-1.946-.52.092-.344z"></path><path d="M71.272 89.712v.357h-2.465v-.357h2.465z"></path><path d="m99.376 101.824-.066-11.336 14.352.131c.173-.073 1.069-.491 1.247-1.32.155-.719-.252-1.568-1.209-2.525l.253-.252c1.049 1.049 1.489 2.01 1.305 2.855-.239 1.105-1.447 1.569-1.499 1.589l-.031.012h-.033l-14.026-.128.065 10.973-.358.001z"></path><path d="m106.43 175.06.972 1.946-.32.16-.972-1.945.32-.16z"></path><path d="m107.988 174.272.973 1.946-.319.16-.973-1.946.32-.16z"></path><path d="m109.634 173.508.972 1.946-.32.16-.972-1.946.32-.16z"></path><path d="m122.923 169.897.032.355-10.728.969-.032-.356 10.728-.968z"></path><path d="m122.872 168.858.031.355-10.874.938-.031-.355 10.874-.938z"></path></g></g>
</svg>
</g><g opacity="1" transform="rotate(0 277.7946 817.6436)">
<svg width="319.4107" height="28" x="277.7946" y="817.6436" version="1.1" preserveAspectRatio="none" viewBox="3.48 -29.46 414.26 36.32">
  <g transform="matrix(1 0 0 1 0 0)" class="text"><path id="id-6izo4zJp20" d="M7.36-28.66L7.36-3.26L19.76-3.26L19.76 0L3.48 0L3.48-28.66L7.36-28.66Z M32.38-20.58L32.38-20.58Q34.20-20.58 35.74-19.97Q37.28-19.36 38.40-18.21Q39.52-17.06 40.15-15.37Q40.78-13.68 40.78-11.52L40.78-11.52Q40.78-10.68 40.60-10.40Q40.42-10.12 39.92-10.12L39.92-10.12L26.44-10.12Q26.48-8.20 26.96-6.78Q27.44-5.36 28.28-4.41Q29.12-3.46 30.28-2.99Q31.44-2.52 32.88-2.52L32.88-2.52Q34.22-2.52 35.19-2.83Q36.16-3.14 36.86-3.50Q37.56-3.86 38.03-4.17Q38.50-4.48 38.84-4.48L38.84-4.48Q39.28-4.48 39.52-4.14L39.52-4.14L40.52-2.84Q39.86-2.04 38.94-1.45Q38.02-0.86 36.97-0.48Q35.92-0.10 34.80 0.09Q33.68 0.28 32.58 0.28L32.58 0.28Q30.48 0.28 28.71-0.43Q26.94-1.14 25.65-2.51Q24.36-3.88 23.64-5.90Q22.92-7.92 22.92-10.54L22.92-10.54Q22.92-12.66 23.57-14.50Q24.22-16.34 25.44-17.69Q26.66-19.04 28.42-19.81Q30.18-20.58 32.38-20.58ZM32.46-17.96L32.46-17.96Q29.88-17.96 28.40-16.47Q26.92-14.98 26.56-12.34L26.56-12.34L37.58-12.34Q37.58-13.58 37.24-14.61Q36.90-15.64 36.24-16.39Q35.58-17.14 34.63-17.55Q33.68-17.96 32.46-17.96Z M61.80-12.96L61.80 0L60.22 0Q59.70 0 59.38-0.16Q59.06-0.32 58.96-0.84L58.96-0.84L58.56-2.72Q57.76-2 57.00-1.43Q56.24-0.86 55.40-0.47Q54.56-0.08 53.61 0.12Q52.66 0.32 51.50 0.32L51.50 0.32Q50.32 0.32 49.29-0.01Q48.26-0.34 47.50-1Q46.74-1.66 46.29-2.67Q45.84-3.68 45.84-5.06L45.84-5.06Q45.84-6.26 46.50-7.37Q47.16-8.48 48.63-9.34Q50.10-10.20 52.48-10.75Q54.86-11.30 58.30-11.38L58.30-11.38L58.30-12.96Q58.30-15.32 57.29-16.53Q56.28-17.74 54.30-17.74L54.30-17.74Q53.00-17.74 52.11-17.41Q51.22-17.08 50.57-16.67Q49.92-16.26 49.45-15.93Q48.98-15.60 48.52-15.60L48.52-15.60Q48.16-15.60 47.89-15.79Q47.62-15.98 47.46-16.26L47.46-16.26L46.82-17.40Q48.50-19.02 50.44-19.82Q52.38-20.62 54.74-20.62L54.74-20.62Q56.44-20.62 57.76-20.06Q59.08-19.50 59.98-18.50Q60.88-17.50 61.34-16.08Q61.80-14.66 61.80-12.96L61.80-12.96ZM52.56-2.18L52.56-2.18Q53.50-2.18 54.28-2.37Q55.06-2.56 55.75-2.91Q56.44-3.26 57.07-3.76Q57.70-4.26 58.30-4.90L58.30-4.90L58.30-9.12Q55.84-9.04 54.12-8.73Q52.40-8.42 51.32-7.92Q50.24-7.42 49.75-6.74Q49.26-6.06 49.26-5.22L49.26-5.22Q49.26-4.42 49.52-3.84Q49.78-3.26 50.22-2.89Q50.66-2.52 51.26-2.35Q51.86-2.18 52.56-2.18Z M72.36 0L68.80 0L68.80-20.26L70.84-20.26Q71.42-20.26 71.64-20.04Q71.86-19.82 71.94-19.28L71.94-19.28L72.18-16.12Q73.22-18.24 74.75-19.43Q76.28-20.62 78.34-20.62L78.34-20.62Q79.18-20.62 79.86-20.43Q80.54-20.24 81.12-19.90L81.12-19.90L80.66-17.24Q80.52-16.74 80.04-16.74L80.04-16.74Q79.76-16.74 79.18-16.93Q78.60-17.12 77.56-17.12L77.56-17.12Q75.70-17.12 74.45-16.04Q73.20-14.96 72.36-12.90L72.36-12.90L72.36 0Z M90.08 0L86.52 0L86.52-20.26L88.64-20.26Q89.40-20.26 89.60-19.52L89.60-19.52L89.88-17.32Q91.20-18.78 92.83-19.68Q94.46-20.58 96.60-20.58L96.60-20.58Q98.26-20.58 99.53-20.03Q100.80-19.48 101.65-18.47Q102.50-17.46 102.94-16.04Q103.38-14.62 103.38-12.90L103.38-12.90L103.38 0L99.82 0L99.82-12.90Q99.82-15.20 98.77-16.47Q97.72-17.74 95.56-17.74L95.56-17.74Q93.98-17.74 92.61-16.98Q91.24-16.22 90.08-14.92L90.08-14.92L90.08 0Z M130.38 0L120.24 0L120.24-28.66L129.38-28.66Q132.02-28.66 133.93-28.14Q135.84-27.62 137.07-26.66Q138.30-25.70 138.89-24.31Q139.48-22.92 139.48-21.18L139.48-21.18Q139.48-20.12 139.15-19.14Q138.82-18.16 138.15-17.32Q137.48-16.48 136.47-15.82Q135.46-15.16 134.10-14.74L134.10-14.74Q137.24-14.12 138.84-12.48Q140.44-10.84 140.44-8.16L140.44-8.16Q140.44-6.34 139.77-4.84Q139.10-3.34 137.81-2.26Q136.52-1.18 134.65-0.59Q132.78 0 130.38 0L130.38 0ZM130.30-13.06L124.12-13.06L124.12-3.08L130.32-3.08Q131.98-3.08 133.17-3.46Q134.36-3.84 135.13-4.53Q135.90-5.22 136.26-6.17Q136.62-7.12 136.62-8.26L136.62-8.26Q136.62-10.48 135.05-11.77Q133.48-13.06 130.30-13.06L130.30-13.06ZM124.12-25.60L124.12-15.82L129.24-15.82Q130.88-15.82 132.08-16.18Q133.28-16.54 134.07-17.18Q134.86-17.82 135.24-18.73Q135.62-19.64 135.62-20.72L135.62-20.72Q135.62-23.24 134.10-24.42Q132.58-25.60 129.38-25.60L129.38-25.60L124.12-25.60Z M155.18-20.58L155.18-20.58Q157.00-20.58 158.54-19.97Q160.08-19.36 161.20-18.21Q162.32-17.06 162.95-15.37Q163.58-13.68 163.58-11.52L163.58-11.52Q163.58-10.68 163.40-10.40Q163.22-10.12 162.72-10.12L162.72-10.12L149.24-10.12Q149.28-8.20 149.76-6.78Q150.24-5.36 151.08-4.41Q151.92-3.46 153.08-2.99Q154.24-2.52 155.68-2.52L155.68-2.52Q157.02-2.52 157.99-2.83Q158.96-3.14 159.66-3.50Q160.36-3.86 160.83-4.17Q161.30-4.48 161.64-4.48L161.64-4.48Q162.08-4.48 162.32-4.14L162.32-4.14L163.32-2.84Q162.66-2.04 161.74-1.45Q160.82-0.86 159.77-0.48Q158.72-0.10 157.60 0.09Q156.48 0.28 155.38 0.28L155.38 0.28Q153.28 0.28 151.51-0.43Q149.74-1.14 148.45-2.51Q147.16-3.88 146.44-5.90Q145.72-7.92 145.72-10.54L145.72-10.54Q145.72-12.66 146.37-14.50Q147.02-16.34 148.24-17.69Q149.46-19.04 151.22-19.81Q152.98-20.58 155.18-20.58ZM155.26-17.96L155.26-17.96Q152.68-17.96 151.20-16.47Q149.72-14.98 149.36-12.34L149.36-12.34L160.38-12.34Q160.38-13.58 160.04-14.61Q159.70-15.64 159.04-16.39Q158.38-17.14 157.43-17.55Q156.48-17.96 155.26-17.96Z M186.44-20.26L175.14 5.98Q174.96 6.38 174.69 6.62Q174.42 6.86 173.86 6.86L173.86 6.86L171.22 6.86L174.92-1.18L166.56-20.26L169.64-20.26Q170.10-20.26 170.36-20.03Q170.62-19.80 170.74-19.52L170.74-19.52L176.16-6.76Q176.34-6.32 176.47-5.88Q176.60-5.44 176.70-4.98L176.70-4.98Q176.84-5.44 176.98-5.88Q177.12-6.32 177.30-6.78L177.30-6.78L182.56-19.52Q182.68-19.84 182.97-20.05Q183.26-20.26 183.60-20.26L183.60-20.26L186.44-20.26Z M198.96-20.58L198.96-20.58Q201.18-20.58 202.97-19.84Q204.76-19.10 206.01-17.74Q207.26-16.38 207.93-14.45Q208.60-12.52 208.60-10.14L208.60-10.14Q208.60-7.74 207.93-5.82Q207.26-3.90 206.01-2.54Q204.76-1.18 202.97-0.45Q201.18 0.28 198.96 0.28L198.96 0.28Q196.74 0.28 194.95-0.45Q193.16-1.18 191.90-2.54Q190.64-3.90 189.96-5.82Q189.28-7.74 189.28-10.14L189.28-10.14Q189.28-12.52 189.96-14.45Q190.64-16.38 191.90-17.74Q193.16-19.10 194.95-19.84Q196.74-20.58 198.96-20.58ZM198.96-2.50L198.96-2.50Q201.96-2.50 203.44-4.51Q204.92-6.52 204.92-10.12L204.92-10.12Q204.92-13.74 203.44-15.76Q201.96-17.78 198.96-17.78L198.96-17.78Q197.44-17.78 196.32-17.26Q195.20-16.74 194.45-15.76Q193.70-14.78 193.33-13.35Q192.96-11.92 192.96-10.12L192.96-10.12Q192.96-8.32 193.33-6.90Q193.70-5.48 194.45-4.51Q195.20-3.54 196.32-3.02Q197.44-2.50 198.96-2.50Z M218.16 0L214.60 0L214.60-20.26L216.72-20.26Q217.48-20.26 217.68-19.52L217.68-19.52L217.96-17.32Q219.28-18.78 220.91-19.68Q222.54-20.58 224.68-20.58L224.68-20.58Q226.34-20.58 227.61-20.03Q228.88-19.48 229.73-18.47Q230.58-17.46 231.02-16.04Q231.46-14.62 231.46-12.90L231.46-12.90L231.46 0L227.90 0L227.90-12.90Q227.90-15.20 226.85-16.47Q225.80-17.74 223.64-17.74L223.64-17.74Q222.06-17.74 220.69-16.98Q219.32-16.22 218.16-14.92L218.16-14.92L218.16 0Z M254.82 0L252.70 0Q251.94 0 251.74-0.74L251.74-0.74L251.42-3.20Q250.12-1.62 248.45-0.67Q246.78 0.28 244.62 0.28L244.62 0.28Q242.88 0.28 241.46-0.39Q240.04-1.06 239.04-2.36Q238.04-3.66 237.50-5.60Q236.96-7.54 236.96-10.06L236.96-10.06Q236.96-12.30 237.56-14.23Q238.16-16.16 239.29-17.58Q240.42-19 242.04-19.81Q243.66-20.62 245.72-20.62L245.72-20.62Q247.58-20.62 248.90-19.99Q250.22-19.36 251.26-18.22L251.26-18.22L251.26-29.46L254.82-29.46L254.82 0ZM245.80-2.60L245.80-2.60Q247.54-2.60 248.85-3.40Q250.16-4.20 251.26-5.66L251.26-5.66L251.26-15.46Q250.28-16.78 249.11-17.31Q247.94-17.84 246.52-17.84L246.52-17.84Q243.68-17.84 242.16-15.82Q240.64-13.80 240.64-10.06L240.64-10.06Q240.64-8.08 240.98-6.67Q241.32-5.26 241.98-4.35Q242.64-3.44 243.60-3.02Q244.56-2.60 245.80-2.60Z M282.42 0L272.28 0L272.28-28.66L281.42-28.66Q284.06-28.66 285.97-28.14Q287.88-27.62 289.11-26.66Q290.34-25.70 290.93-24.31Q291.52-22.92 291.52-21.18L291.52-21.18Q291.52-20.12 291.19-19.14Q290.86-18.16 290.19-17.32Q289.52-16.48 288.51-15.82Q287.50-15.16 286.14-14.74L286.14-14.74Q289.28-14.12 290.88-12.48Q292.48-10.84 292.48-8.16L292.48-8.16Q292.48-6.34 291.81-4.84Q291.14-3.34 289.85-2.26Q288.56-1.18 286.69-0.59Q284.82 0 282.42 0L282.42 0ZM282.34-13.06L276.16-13.06L276.16-3.08L282.36-3.08Q284.02-3.08 285.21-3.46Q286.40-3.84 287.17-4.53Q287.94-5.22 288.30-6.17Q288.66-7.12 288.66-8.26L288.66-8.26Q288.66-10.48 287.09-11.77Q285.52-13.06 282.34-13.06L282.34-13.06ZM276.16-25.60L276.16-15.82L281.28-15.82Q282.92-15.82 284.12-16.18Q285.32-16.54 286.11-17.18Q286.90-17.82 287.28-18.73Q287.66-19.64 287.66-20.72L287.66-20.72Q287.66-23.24 286.14-24.42Q284.62-25.60 281.42-25.60L281.42-25.60L276.16-25.60Z M307.40-20.58L307.40-20.58Q309.62-20.58 311.41-19.84Q313.20-19.10 314.45-17.74Q315.70-16.38 316.37-14.45Q317.04-12.52 317.04-10.14L317.04-10.14Q317.04-7.74 316.37-5.82Q315.70-3.90 314.45-2.54Q313.20-1.18 311.41-0.45Q309.62 0.28 307.40 0.28L307.40 0.28Q305.18 0.28 303.39-0.45Q301.60-1.18 300.34-2.54Q299.08-3.90 298.40-5.82Q297.72-7.74 297.72-10.14L297.72-10.14Q297.72-12.52 298.40-14.45Q299.08-16.38 300.34-17.74Q301.60-19.10 303.39-19.84Q305.18-20.58 307.40-20.58ZM307.40-2.50L307.40-2.50Q310.40-2.50 311.88-4.51Q313.36-6.52 313.36-10.12L313.36-10.12Q313.36-13.74 311.88-15.76Q310.40-17.78 307.40-17.78L307.40-17.78Q305.88-17.78 304.76-17.26Q303.64-16.74 302.89-15.76Q302.14-14.78 301.77-13.35Q301.40-11.92 301.40-10.12L301.40-10.12Q301.40-8.32 301.77-6.90Q302.14-5.48 302.89-4.51Q303.64-3.54 304.76-3.02Q305.88-2.50 307.40-2.50Z M326.60 0L323.04 0L323.04-20.26L325.08-20.26Q325.66-20.26 325.88-20.04Q326.10-19.82 326.18-19.28L326.18-19.28L326.42-16.12Q327.46-18.24 328.99-19.43Q330.52-20.62 332.58-20.62L332.58-20.62Q333.42-20.62 334.10-20.43Q334.78-20.24 335.36-19.90L335.36-19.90L334.90-17.24Q334.76-16.74 334.28-16.74L334.28-16.74Q334.00-16.74 333.42-16.93Q332.84-17.12 331.80-17.12L331.80-17.12Q329.94-17.12 328.69-16.04Q327.44-14.96 326.60-12.90L326.60-12.90L326.60 0Z M357.14 0L355.02 0Q354.26 0 354.06-0.74L354.06-0.74L353.74-3.20Q352.44-1.62 350.77-0.67Q349.10 0.28 346.94 0.28L346.94 0.28Q345.20 0.28 343.78-0.39Q342.36-1.06 341.36-2.36Q340.36-3.66 339.82-5.60Q339.28-7.54 339.28-10.06L339.28-10.06Q339.28-12.30 339.88-14.23Q340.48-16.16 341.61-17.58Q342.74-19 344.36-19.81Q345.98-20.62 348.04-20.62L348.04-20.62Q349.90-20.62 351.22-19.99Q352.54-19.36 353.58-18.22L353.58-18.22L353.58-29.46L357.14-29.46L357.14 0ZM348.12-2.60L348.12-2.60Q349.86-2.60 351.17-3.40Q352.48-4.20 353.58-5.66L353.58-5.66L353.58-15.46Q352.60-16.78 351.43-17.31Q350.26-17.84 348.84-17.84L348.84-17.84Q346.00-17.84 344.48-15.82Q342.96-13.80 342.96-10.06L342.96-10.06Q342.96-8.08 343.30-6.67Q343.64-5.26 344.30-4.35Q344.96-3.44 345.92-3.02Q346.88-2.60 348.12-2.60Z M372.74-20.58L372.74-20.58Q374.56-20.58 376.10-19.97Q377.64-19.36 378.76-18.21Q379.88-17.06 380.51-15.37Q381.14-13.68 381.14-11.52L381.14-11.52Q381.14-10.68 380.96-10.40Q380.78-10.12 380.28-10.12L380.28-10.12L366.80-10.12Q366.84-8.20 367.32-6.78Q367.80-5.36 368.64-4.41Q369.48-3.46 370.64-2.99Q371.80-2.52 373.24-2.52L373.24-2.52Q374.58-2.52 375.55-2.83Q376.52-3.14 377.22-3.50Q377.92-3.86 378.39-4.17Q378.86-4.48 379.20-4.48L379.20-4.48Q379.64-4.48 379.88-4.14L379.88-4.14L380.88-2.84Q380.22-2.04 379.30-1.45Q378.38-0.86 377.33-0.48Q376.28-0.10 375.16 0.09Q374.04 0.28 372.94 0.28L372.94 0.28Q370.84 0.28 369.07-0.43Q367.30-1.14 366.01-2.51Q364.72-3.88 364.00-5.90Q363.28-7.92 363.28-10.54L363.28-10.54Q363.28-12.66 363.93-14.50Q364.58-16.34 365.80-17.69Q367.02-19.04 368.78-19.81Q370.54-20.58 372.74-20.58ZM372.82-17.96L372.82-17.96Q370.24-17.96 368.76-16.47Q367.28-14.98 366.92-12.34L366.92-12.34L377.94-12.34Q377.94-13.58 377.60-14.61Q377.26-15.64 376.60-16.39Q375.94-17.14 374.99-17.55Q374.04-17.96 372.82-17.96Z M390.84 0L387.28 0L387.28-20.26L389.32-20.26Q389.90-20.26 390.12-20.04Q390.34-19.82 390.42-19.28L390.42-19.28L390.66-16.12Q391.70-18.24 393.23-19.43Q394.76-20.62 396.82-20.62L396.82-20.62Q397.66-20.62 398.34-20.43Q399.02-20.24 399.60-19.90L399.60-19.90L399.14-17.24Q399.00-16.74 398.52-16.74L398.52-16.74Q398.24-16.74 397.66-16.93Q397.08-17.12 396.04-17.12L396.04-17.12Q394.18-17.12 392.93-16.04Q391.68-14.96 390.84-12.90L390.84-12.90L390.84 0Z M417.40-18.22L416.60-16.92Q416.36-16.48 415.86-16.48L415.86-16.48Q415.56-16.48 415.18-16.70Q414.80-16.92 414.25-17.19Q413.70-17.46 412.94-17.69Q412.18-17.92 411.14-17.92L411.14-17.92Q410.24-17.92 409.52-17.69Q408.80-17.46 408.29-17.06Q407.78-16.66 407.51-16.13Q407.24-15.60 407.24-14.98L407.24-14.98Q407.24-14.20 407.69-13.68Q408.14-13.16 408.88-12.78Q409.62-12.40 410.56-12.11Q411.50-11.82 412.49-11.49Q413.48-11.16 414.42-10.76Q415.36-10.36 416.10-9.76Q416.84-9.16 417.29-8.29Q417.74-7.42 417.74-6.20L417.74-6.20Q417.74-4.80 417.24-3.61Q416.74-2.42 415.76-1.55Q414.78-0.68 413.36-0.18Q411.94 0.32 410.08 0.32L410.08 0.32Q407.96 0.32 406.24-0.37Q404.52-1.06 403.32-2.14L403.32-2.14L404.16-3.50Q404.32-3.76 404.54-3.90Q404.76-4.04 405.12-4.04L405.12-4.04Q405.48-4.04 405.88-3.76Q406.28-3.48 406.85-3.14Q407.42-2.80 408.23-2.52Q409.04-2.24 410.26-2.24L410.26-2.24Q411.30-2.24 412.08-2.51Q412.86-2.78 413.38-3.24Q413.90-3.70 414.15-4.30Q414.40-4.90 414.40-5.58L414.40-5.58Q414.40-6.42 413.95-6.97Q413.50-7.52 412.76-7.91Q412.02-8.30 411.07-8.59Q410.12-8.88 409.13-9.20Q408.14-9.52 407.19-9.93Q406.24-10.34 405.50-10.96Q404.76-11.58 404.31-12.49Q403.86-13.40 403.86-14.70L403.86-14.70Q403.86-15.86 404.34-16.93Q404.82-18 405.74-18.81Q406.66-19.62 408.00-20.10Q409.34-20.58 411.06-20.58L411.06-20.58Q413.06-20.58 414.65-19.95Q416.24-19.32 417.40-18.22L417.40-18.22Z"/></g>
</svg>
</g><g opacity="1" transform="rotate(0 240.9855 725.6436)">
<svg width="393.029" height="70" x="240.9855" y="725.6436" version="1.1" preserveAspectRatio="none" viewBox="2.4 -26.8 152.72 27.2">
  <g transform="matrix(1 0 0 1 0 0)" class="companyName"><path id="id-D6z1nYkh6" d="M23.60 0L2.40 0L2.40-0.64L5.64-2.24L5.64-24.16L2.40-25.76L2.40-26.40L22.48-26.40L22.48-19.52L21.84-19.52L19.24-24.20L9.84-24.20L9.84-14.72L16.48-14.72L18.52-18.08L19.16-18.08L19.16-9.24L18.52-9.24L16.48-12.52L9.84-12.52L9.84-2.20L20.32-2.20L22.96-7.48L23.60-7.48L23.60 0Z M35 0L27.56 0L27.56-0.64L29.60-1.72L38.48-22.60L40.56-22.60L49.36-1.80L51.72-0.64L51.72 0L42.44 0L42.44-0.64L45.24-1.80L42.76-7.72L34.52-7.72L32.08-1.76L35-0.64L35 0ZM38.60-17.68L35.36-9.72L41.92-9.72L38.60-17.68Z M62.48 0.40L62.48 0.40Q60.32 0.40 58.74-0.04Q57.16-0.48 55.56-1.28L55.56-1.28L55.20-6.72L55.84-6.72L57.92-3Q59-2.16 60.20-1.84Q61.40-1.52 62.64-1.52L62.64-1.52Q64.84-1.52 66.04-2.40Q67.24-3.28 67.24-5.12L67.24-5.12Q67.24-6.48 66.52-7.24Q65.80-8 64.36-8.66Q62.92-9.32 60.80-10.32L60.80-10.32Q58.28-11.52 57.16-12.82Q56.04-14.12 56.04-16.32L56.04-16.32Q56.04-18.08 57.06-19.56Q58.08-21.04 59.78-21.94Q61.48-22.84 63.48-22.84L63.48-22.84Q65.20-22.84 66.64-22.42Q68.08-22 69.40-21.32L69.40-21.32L69.72-16.08L69.08-16.08L67.24-19.60Q65.60-20.92 63.56-20.92L63.56-20.92Q61.64-20.92 60.54-19.98Q59.44-19.04 59.44-17.44L59.44-17.44Q59.44-16.40 59.96-15.70Q60.48-15 61.58-14.38Q62.68-13.76 64.40-12.92L64.40-12.92Q66.64-11.84 68-10.92Q69.36-10 69.98-8.86Q70.60-7.72 70.60-6L70.60-6Q70.60-4.12 69.54-2.68Q68.48-1.24 66.64-0.42Q64.80 0.40 62.48 0.40Z M90.96 0L80.76 0L80.76-0.64L83.88-1.96L83.88-10.60L76.60-20.48L73.96-21.76L73.96-22.40L83.56-22.40L83.56-21.76L81.12-20.56L81.12-20.40L86.92-12.68L92.20-20.36L92.20-20.48L89.64-21.76L89.64-22.40L97.52-22.40L97.52-21.76L94.88-20.52L87.84-10.52L87.84-1.96L90.96-0.64L90.96 0Z M114.80 0.40L114.80 0.40Q111.92 0.40 109.46-0.56Q107.00-1.52 105.20-3.26Q103.40-5 102.38-7.36Q101.36-9.72 101.36-12.52L101.36-12.52Q101.36-15.60 102.50-18.20Q103.64-20.80 105.64-22.74Q107.64-24.68 110.24-25.74Q112.84-26.80 115.80-26.80L115.80-26.80Q117.92-26.80 119.40-26.56Q120.88-26.32 122.06-25.88Q123.24-25.44 124.36-24.88L124.36-24.88L124.60-18.16L123.96-18.16L121.08-22.96Q119.52-24 118.40-24.40Q117.28-24.80 115.80-24.80L115.80-24.80Q112.84-24.80 110.52-23.44Q108.20-22.08 106.88-19.68Q105.56-17.28 105.56-14.20L105.56-14.20Q105.56-10.32 106.96-7.56Q108.36-4.80 110.70-3.34Q113.04-1.88 115.96-1.88L115.96-1.88Q117.12-1.88 118.26-2.02Q119.40-2.16 120.56-2.56L120.56-2.56L120.56-9.40L117-11.04L117-11.68L127.56-11.68L127.56-11.04L124.76-9.28L124.76-2.96Q123.56-1.92 121.88-1.18Q120.20-0.44 118.36-0.02Q116.52 0.40 114.80 0.40Z M143.52 0.40L143.52 0.40Q140.16 0.40 137.56-1.10Q134.96-2.60 133.46-5.22Q131.96-7.84 131.96-11.20L131.96-11.20Q131.96-14.56 133.46-17.20Q134.96-19.84 137.56-21.34Q140.16-22.84 143.52-22.84L143.52-22.84Q146.88-22.84 149.50-21.34Q152.12-19.84 153.62-17.20Q155.12-14.56 155.12-11.20L155.12-11.20Q155.12-7.84 153.62-5.22Q152.12-2.60 149.50-1.10Q146.88 0.40 143.52 0.40ZM144.16-1.60L144.16-1.60Q147.40-1.60 149.24-3.96Q151.08-6.32 151.08-10.20L151.08-10.20Q151.08-13.36 150.06-15.76Q149.04-18.16 147.20-19.50Q145.36-20.84 143-20.84L143-20.84Q139.80-20.84 137.90-18.50Q136-16.16 136-12.32L136-12.32Q136-9.12 137.04-6.72Q138.08-4.32 139.92-2.96Q141.76-1.60 144.16-1.60Z"/></g>
</svg>
</g></svg></svg>